<!DOCTYPE svg PUBLIC "-//W3C//DTD SVG 20010904//EN" "http://www.w3.org/TR/2001/REC-SVG-20010904/DTD/svg10.dtd">
<svg version="1.0" xmlns="http://www.w3.org/2000/svg" width="2048px" height="1536px" viewBox="0 0 12000 9000" preserveAspectRatio="xMidYMid meet">
<g id="layer101" fill="#183c65" stroke="none">
 <path d="M0 4500 l0 -4500 6000 0 6000 0 0 4500 0 4500 -6000 0 -6000 0 0 -4500z"/>
 </g>
<g id="layer102" fill="#1577af" stroke="none">
 <path d="M0 4500 l0 -4500 6000 0 6000 0 0 4500 0 4500 -6000 0 -6000 0 0 -4500z m2957 3674 c59 -63 60 -70 64 -304 3 -246 4 -6188 0 -6325 l-2 -90 975 3 976 4 0 -69 c0 -54 6 -81 24 -118 l25 -48 -2177 7 c-1347 5 -2183 11 -2194 17 -41 22 -59 94 -36 144 26 57 -21 55 1086 55 l1019 0 -1 103 c-2 238 -1 6092 2 6301 2 224 3 231 27 272 37 63 69 84 128 84 44 0 53 -4 84 -36z m6560 -471 c-4 -3 -7 0 -7 7 0 7 3 10 7 7 3 -4 3 -10 0 -14z"/>
 </g>
<g id="layer103" fill="#ea413b" stroke="none">
 <path d="M0 4500 l0 -4500 6000 0 6000 0 0 4500 0 4500 -6000 0 -6000 0 0 -4500z m2954 3695 c20 -19 43 -49 52 -67 15 -28 16 -310 16 -3349 l0 -3319 974 0 974 0 0 -68 c0 -52 6 -80 24 -115 l23 -47 -666 -1 c-366 0 -1087 1 -1601 3 -514 1 -1185 2 -1491 0 -391 -3 -569 0 -598 8 -96 26 -110 163 -20 200 26 11 197 14 858 16 454 1 914 2 1021 3 l196 1 -1 3308 c-1 3042 0 3310 15 3347 9 22 33 57 52 78 32 33 40 37 86 37 45 0 55 -4 86 -35z m7512 -40 c192 -33 304 -82 433 -189 l87 -74 24 49 c32 69 105 133 208 182 l87 42 125 0 c167 0 209 -15 300 -104 99 -97 113 -170 43 -231 -55 -49 -111 -36 -177 42 -58 67 -81 78 -167 78 -63 0 -85 -5 -125 -26 -98 -52 -117 -87 -118 -224 0 -89 15 -413 39 -815 27 -441 30 -700 11 -895 -20 -211 -28 -255 -61 -364 -28 -92 -73 -167 -155 -259 -65 -72 -179 -130 -356 -181 -207 -59 -358 -68 -570 -30 -139 24 -222 68 -324 173 -175 178 -250 342 -253 552 -1 78 17 113 68 135 44 18 87 9 120 -26 23 -24 29 -43 41 -141 20 -147 61 -230 166 -338 98 -99 141 -118 309 -136 163 -17 254 -8 416 41 144 43 191 69 236 131 48 67 61 94 92 203 37 127 55 248 62 408 5 122 4 134 -13 147 -103 75 -221 114 -535 174 -300 57 -548 131 -644 192 -61 39 -158 131 -197 187 -36 52 -73 157 -98 277 -23 114 -37 517 -20 618 15 97 55 189 106 246 74 83 223 146 399 170 92 13 329 5 441 -14z"/>
 <path d="M10035 7945 c-144 -27 -233 -73 -264 -137 -38 -80 -43 -130 -36 -373 6 -201 10 -242 32 -325 14 -52 33 -111 43 -131 26 -50 114 -127 179 -156 100 -44 360 -114 634 -168 149 -30 299 -64 331 -75 l59 -20 -8 118 c-4 64 -9 160 -11 212 -16 566 -21 614 -87 729 -23 41 -76 108 -117 151 -81 83 -155 127 -266 155 -143 35 -359 44 -489 20z"/>
 </g>
<g id="layer104" fill="#f8b506" stroke="none">
 <path d="M0 4500 l0 -4500 6000 0 6000 0 0 4500 0 4500 -6000 0 -6000 0 0 -4500z m2954 3695 c20 -19 43 -49 52 -67 15 -28 16 -310 16 -3349 l0 -3319 974 0 974 0 0 -52 c1 -74 14 -126 41 -154 l22 -24 -674 -1 c-371 0 -1095 1 -1609 3 -514 1 -1185 2 -1491 0 -391 -3 -569 0 -598 8 -96 26 -110 163 -20 200 26 11 197 14 858 16 454 1 914 2 1021 3 l196 1 -1 3308 c-1 3042 0 3310 15 3347 9 22 33 57 52 78 32 33 40 37 86 37 45 0 55 -4 86 -35z m7512 -40 c192 -33 304 -82 433 -189 l87 -74 24 49 c32 69 105 133 208 182 l87 42 125 0 c167 0 209 -15 300 -104 99 -97 113 -170 43 -231 -55 -49 -111 -36 -177 42 -58 67 -81 78 -167 78 -63 0 -85 -5 -125 -26 -98 -52 -117 -87 -118 -224 0 -89 15 -413 39 -815 27 -441 30 -700 11 -895 -20 -211 -28 -255 -61 -364 -28 -92 -73 -167 -155 -259 -65 -72 -179 -130 -356 -181 -207 -59 -358 -68 -570 -30 -139 24 -222 68 -324 173 -154 157 -220 282 -246 469 -13 90 -13 113 -2 146 28 82 121 107 180 49 27 -27 31 -41 44 -144 20 -147 61 -230 166 -338 98 -99 141 -118 309 -136 163 -17 254 -8 416 41 144 43 191 69 236 131 48 67 61 94 92 203 37 127 55 248 62 408 5 122 4 134 -13 147 -103 75 -221 114 -535 174 -194 37 -423 96 -542 141 -73 27 -139 71 -210 138 -78 75 -113 127 -143 215 -49 141 -62 236 -69 497 -8 273 -1 328 55 445 64 135 220 222 455 254 92 13 329 5 441 -14z m-1308 -90 c87 -22 132 -79 112 -139 -26 -81 -68 -92 -370 -101 -917 -25 -1771 -395 -2425 -1050 -294 -294 -479 -553 -665 -928 -150 -301 -232 -532 -295 -825 -48 -223 -65 -388 -72 -684 l-6 -248 -118 0 -119 0 -1 48 c-17 599 145 1325 412 1847 365 714 935 1294 1624 1651 465 241 912 376 1395 423 231 23 454 25 528 6z m-3734 -4227 c2 -18 10 -78 16 -133 14 -121 59 -324 102 -460 40 -126 196 -440 284 -570 243 -363 589 -663 948 -822 453 -202 841 -275 1107 -209 153 38 345 125 491 222 329 218 569 573 655 967 22 101 24 317 4 397 -25 103 -69 180 -145 255 -113 113 -240 163 -385 152 -193 -14 -377 -123 -491 -291 -61 -92 -101 -126 -145 -126 -113 0 -145 106 -73 242 73 138 208 265 363 341 124 61 173 70 375 65 159 -4 168 -5 248 -37 203 -80 369 -243 447 -438 127 -317 26 -823 -244 -1224 -215 -320 -548 -578 -895 -695 -256 -85 -481 -92 -830 -25 -337 66 -584 169 -901 377 -300 197 -566 470 -764 781 -210 331 -350 762 -377 1156 l-7 107 106 0 106 0 5 -32z"/>
 <path d="M10035 7945 c-144 -27 -233 -73 -264 -137 -38 -80 -43 -130 -36 -373 6 -201 10 -242 32 -325 14 -52 33 -111 43 -131 26 -50 114 -127 179 -156 100 -44 360 -114 634 -168 149 -30 299 -64 331 -75 l59 -20 -8 118 c-4 64 -9 160 -11 212 -16 566 -21 614 -87 729 -23 41 -76 108 -117 151 -81 83 -155 127 -266 155 -143 35 -359 44 -489 20z"/>
 </g>
<g id="layer105" fill="#f8f8f5" stroke="none">
 <path d="M0 4500 l0 -4500 6000 0 6000 0 0 4500 0 4500 -6000 0 -6000 0 0 -4500z m2954 3695 c20 -19 43 -49 52 -67 15 -28 16 -310 16 -3349 l0 -3319 974 0 974 0 1 398 c0 218 2 1704 5 3302 2 1598 3 2915 4 2927 0 33 47 81 85 89 40 7 80 -10 109 -49 l20 -27 -1 -1943 c0 -1157 3 -1871 8 -1767 9 199 18 276 60 515 67 385 215 834 366 1115 441 820 1075 1403 1909 1759 447 190 883 284 1373 296 255 6 307 -6 353 -80 l18 -30 0 53 c0 96 46 155 120 155 47 0 76 -17 100 -56 17 -28 20 -51 20 -182 l0 -150 24 67 c13 37 33 82 45 101 94 152 363 240 676 222 301 -17 469 -72 634 -209 l87 -74 24 49 c32 69 105 133 208 182 l87 42 125 0 c167 0 209 -15 300 -104 99 -97 113 -170 43 -231 -55 -49 -111 -36 -177 42 -58 67 -81 78 -167 78 -63 0 -85 -5 -125 -26 -98 -52 -117 -87 -118 -224 0 -89 15 -413 39 -815 27 -441 30 -700 11 -895 -20 -211 -28 -255 -61 -364 -28 -92 -73 -167 -155 -259 -41 -45 -71 -67 -144 -102 -116 -56 -304 -110 -436 -126 -172 -19 -381 8 -508 67 -171 79 -374 349 -399 531 -17 122 -23 -38 -18 -467 2 -250 5 -1221 5 -2158 0 -1826 3 -1729 -48 -1775 -29 -26 -83 -32 -120 -13 -59 30 -67 55 -68 206 0 74 -2 423 -3 775 -3 559 -5 631 -16 570 -108 -583 -451 -1046 -976 -1315 -315 -162 -606 -193 -1033 -111 -337 66 -584 169 -901 377 -300 197 -566 470 -764 781 -210 331 -350 762 -377 1157 -4 58 -9 104 -13 101 -3 -3 -5 -581 -6 -1283 0 -1186 -1 -1279 -17 -1308 -10 -17 -25 -35 -35 -39 -10 -3 -763 -5 -1673 -3 -910 2 -1905 2 -2211 0 -391 -3 -569 0 -598 8 -96 26 -110 163 -20 200 26 11 197 14 858 16 454 1 914 2 1021 3 l196 1 -1 3308 c-1 3042 0 3310 15 3347 9 22 33 57 52 78 32 33 40 37 86 37 45 0 55 -4 86 -35z"/>
 <path d="M10035 7945 c-144 -27 -233 -73 -264 -137 -38 -80 -43 -130 -36 -373 6 -201 10 -242 32 -325 14 -52 33 -111 43 -131 26 -50 114 -127 179 -156 100 -44 360 -114 634 -168 149 -30 299 -64 331 -75 l59 -20 -8 118 c-4 64 -9 160 -11 212 -16 566 -21 614 -87 729 -23 41 -76 108 -117 151 -81 83 -155 127 -266 155 -143 35 -359 44 -489 20z"/>
 <path d="M9248 7886 c-37 -46 -78 -53 -348 -60 -917 -26 -1771 -396 -2425 -1051 -294 -294 -479 -553 -665 -928 -150 -301 -232 -532 -295 -825 -50 -232 -68 -412 -69 -692 l-1 -235 1915 4 c1053 2 1917 5 1920 8 3 3 5 626 5 1386 0 760 -2 1617 -5 1905 l-5 522 -27 -34z"/>
 <path d="M9521 6585 c-1 -585 0 -628 15 -606 22 31 75 52 113 45 16 -3 41 -19 56 -34 23 -24 29 -43 41 -141 20 -147 61 -230 166 -338 98 -99 141 -118 309 -136 163 -17 254 -8 416 41 144 43 191 69 236 131 48 67 61 94 92 203 37 127 55 248 62 408 5 122 4 134 -13 147 -103 75 -221 114 -535 174 -300 57 -548 131 -644 192 -61 39 -158 131 -197 187 -35 50 -72 153 -98 272 l-19 85 0 -630z"/>
 <path d="M5192 4150 c0 -14 2 -19 5 -12 2 6 2 18 0 25 -3 6 -5 1 -5 -13z"/>
 <path d="M5426 3817 c20 -200 59 -391 116 -572 40 -126 196 -439 284 -570 243 -363 589 -663 948 -822 453 -202 841 -275 1107 -209 153 38 345 125 491 222 329 218 569 573 655 967 22 101 24 317 4 397 -25 103 -69 180 -145 255 -113 113 -240 163 -385 152 -193 -14 -377 -123 -491 -291 -61 -92 -101 -126 -145 -126 -113 0 -145 106 -73 242 41 77 125 177 202 241 64 52 204 129 281 153 32 10 -235 12 -1407 13 l-1447 1 5 -53z"/>
 <path d="M8762 3836 c126 -48 192 -90 288 -186 119 -119 181 -230 213 -385 l15 -70 3 160 c1 88 3 237 4 331 l2 172 -45 6 c-25 3 -162 6 -306 6 l-261 -1 87 -33z"/>
 </g>

</svg>