<!DOCTYPE svg PUBLIC "-//W3C//DTD SVG 20010904//EN" "http://www.w3.org/TR/2001/REC-SVG-20010904/DTD/svg10.dtd">
<svg version="1.0" xmlns="http://www.w3.org/2000/svg" width="2048px" height="1536px" viewBox="0 0 12000 9000" preserveAspectRatio="xMidYMid meet">
<g id="layer101" fill="#183c65" stroke="none">
 <path d="M2782 8193 c-19 -21 -43 -56 -52 -78 -15 -37 -16 -305 -15 -3347 l1 -3308 -196 -1 c-107 -1 -567 -2 -1021 -3 -661 -2 -832 -5 -858 -16 -90 -37 -76 -174 20 -200 29 -8 207 -11 598 -8 306 2 1301 2 2211 0 910 -2 1663 0 1673 3 10 4 25 22 35 39 16 29 17 122 17 1308 1 702 3 1280 6 1283 4 3 9 -43 13 -101 16 -238 79 -506 179 -770 110 -287 313 -590 562 -840 138 -138 244 -225 400 -328 317 -208 564 -311 901 -377 427 -82 718 -51 1033 111 525 269 868 732 976 1315 11 61 13 -11 16 -570 1 -352 3 -701 3 -775 1 -151 9 -176 68 -206 37 -19 91 -13 120 13 51 46 48 -51 48 1775 0 937 -3 1908 -5 2158 -5 429 1 589 18 467 17 -124 102 -271 237 -408 102 -105 185 -149 324 -173 212 -38 363 -29 570 30 177 51 291 109 356 181 82 92 127 167 155 259 33 109 41 153 61 364 19 195 16 454 -11 895 -24 402 -39 726 -39 815 1 137 20 172 118 224 40 21 62 26 125 26 86 0 109 -11 167 -78 66 -78 122 -91 177 -42 70 61 56 134 -43 231 -91 89 -133 104 -300 104 l-125 0 -87 -42 c-103 -49 -176 -113 -208 -182 l-24 -49 -87 74 c-165 137 -333 192 -634 209 -313 18 -582 -70 -676 -222 -12 -19 -32 -64 -45 -101 l-24 -67 0 150 c0 131 -3 154 -20 182 -24 39 -53 56 -100 56 -74 0 -120 -59 -120 -155 l0 -53 -18 30 c-46 74 -98 86 -353 80 -490 -12 -926 -106 -1373 -296 -834 -356 -1468 -939 -1909 -1759 -151 -281 -299 -730 -366 -1115 -42 -239 -51 -316 -60 -515 -5 -104 -8 610 -8 1767 l1 1943 -20 27 c-29 39 -69 56 -109 49 -38 -8 -85 -56 -85 -89 -1 -12 -2 -1329 -4 -2927 -3 -1598 -5 -3084 -5 -3302 l-1 -398 -974 0 -974 0 0 3319 c0 3039 -1 3321 -16 3349 -9 18 -32 48 -52 67 -31 31 -41 35 -86 35 -46 0 -54 -4 -86 -37z m7598 -243 c202 -25 302 -69 410 -180 41 -43 94 -110 117 -151 66 -115 71 -163 87 -729 2 -52 7 -148 11 -212 l8 -118 -59 20 c-32 11 -182 45 -331 75 -274 54 -534 124 -634 168 -65 29 -153 106 -179 156 -10 20 -29 79 -43 131 -22 83 -26 124 -32 325 -7 243 -2 293 36 373 56 115 321 177 609 142z m-1095 -2457 c0 -760 -2 -1383 -5 -1386 -3 -3 -867 -6 -1920 -8 l-1915 -4 1 235 c1 280 19 460 69 692 63 293 145 524 295 825 186 375 371 634 665 928 292 293 608 518 980 700 440 215 942 337 1445 351 270 7 311 14 348 60 l27 34 5 -522 c3 -288 5 -1145 5 -1905z m299 1480 c30 -88 65 -140 143 -215 71 -67 137 -111 210 -138 119 -45 348 -104 542 -141 314 -60 432 -99 535 -174 17 -13 18 -25 13 -147 -7 -160 -25 -281 -62 -408 -31 -109 -44 -136 -92 -203 -45 -62 -92 -88 -236 -131 -162 -49 -253 -58 -416 -41 -168 18 -211 37 -309 136 -105 108 -146 191 -166 338 -12 98 -18 117 -41 141 -15 15 -40 31 -56 34 -38 7 -91 -14 -113 -45 -15 -22 -16 21 -15 606 l0 630 19 -85 c10 -47 30 -117 44 -157z m-4387 -2835 c-3 -7 -5 -2 -5 12 0 14 2 19 5 13 2 -7 2 -19 0 -25z m3078 -282 c-77 -24 -217 -101 -281 -153 -77 -64 -161 -164 -202 -241 -72 -136 -40 -242 73 -242 44 0 84 34 145 126 114 168 298 277 491 291 241 18 468 -156 530 -407 20 -80 18 -296 -4 -397 -55 -250 -187 -514 -349 -698 -207 -235 -505 -418 -797 -491 -266 -66 -654 7 -1107 209 -359 159 -705 459 -948 822 -88 131 -244 444 -284 570 -57 181 -96 372 -116 572 l-5 53 1447 -1 c1172 -1 1439 -3 1407 -13z m967 8 l45 -6 -2 -172 c-1 -94 -3 -243 -4 -331 l-3 -160 -15 70 c-32 155 -94 266 -213 385 -96 96 -162 138 -288 186 l-87 33 261 1 c144 0 281 -3 306 -6z"/>
 </g>
<g id="layer102" fill="#1577af" stroke="none">
 <path d="M2803 8215 c-23 -16 -83 -102 -83 -119 0 -5 13 11 29 36 38 60 66 78 121 78 55 0 78 -15 119 -77 17 -25 31 -42 31 -36 0 18 -60 101 -85 117 -31 20 -104 21 -132 1z"/>
 <path d="M5041 8168 c-13 -7 -33 -24 -43 -38 -18 -25 -19 -118 -23 -3415 -4 -3279 -3 -3391 15 -3432 10 -23 27 -46 38 -52 29 -15 78 -14 111 3 59 31 56 -45 56 1348 1 702 3 1280 6 1283 4 3 9 -43 13 -101 16 -238 79 -506 179 -770 110 -287 313 -590 562 -840 138 -138 244 -225 400 -328 317 -208 564 -311 901 -377 427 -82 718 -51 1033 111 525 269 868 732 976 1315 11 61 13 -11 16 -570 1 -352 3 -701 3 -775 1 -151 9 -176 68 -206 37 -19 91 -13 120 13 51 46 48 -51 48 1775 0 937 -3 1908 -5 2158 -5 429 1 589 18 467 17 -124 102 -271 237 -408 102 -105 185 -149 324 -173 212 -38 363 -29 570 30 177 51 291 109 356 181 82 92 127 167 155 259 33 109 41 153 61 364 19 195 16 454 -11 895 -24 402 -39 726 -39 815 1 137 20 172 118 224 40 21 62 26 125 26 86 0 109 -11 167 -78 66 -78 122 -91 177 -42 70 61 56 134 -43 231 -91 89 -133 104 -300 104 l-125 0 -87 -42 c-103 -49 -176 -113 -208 -182 l-24 -49 -87 74 c-165 137 -333 192 -634 209 -313 18 -582 -70 -676 -222 -12 -19 -32 -64 -45 -101 l-24 -67 0 150 c0 131 -3 154 -20 182 -24 39 -53 56 -100 56 -74 0 -120 -59 -120 -155 l0 -53 -18 30 c-46 74 -98 86 -353 80 -490 -12 -926 -106 -1373 -296 -834 -356 -1468 -939 -1909 -1759 -151 -281 -299 -730 -366 -1115 -42 -239 -51 -316 -61 -515 -5 -106 -8 575 -8 1735 0 1051 0 1927 -1 1947 -2 74 -88 129 -150 96z m5339 -218 c202 -25 302 -69 410 -180 41 -43 94 -110 117 -151 66 -115 71 -163 87 -729 2 -52 7 -148 11 -212 l8 -118 -59 20 c-32 11 -182 45 -331 75 -274 54 -534 124 -634 168 -65 29 -153 106 -179 156 -10 20 -29 79 -43 131 -22 83 -26 124 -32 325 -7 243 -2 293 36 373 56 115 321 177 609 142z m-1095 -2457 c0 -760 -2 -1383 -5 -1386 -3 -3 -867 -6 -1920 -8 l-1915 -4 1 235 c1 280 19 460 69 692 63 293 145 524 295 825 186 375 371 634 665 928 292 293 608 518 980 700 440 215 942 337 1445 351 270 7 311 14 348 60 l27 34 5 -522 c3 -288 5 -1145 5 -1905z m232 2210 c-4 -3 -7 0 -7 7 0 7 3 10 7 7 3 -4 3 -10 0 -14z m67 -730 c30 -88 65 -140 143 -215 71 -67 137 -111 210 -138 119 -45 348 -104 542 -141 314 -60 432 -99 535 -174 17 -13 18 -25 13 -147 -7 -160 -25 -281 -62 -408 -31 -109 -44 -136 -92 -203 -45 -62 -92 -88 -236 -131 -162 -49 -253 -58 -416 -41 -168 18 -211 37 -309 136 -105 108 -146 191 -166 338 -12 98 -18 117 -41 141 -15 15 -40 31 -56 34 -38 7 -91 -14 -113 -45 -15 -22 -16 21 -15 606 l0 630 19 -85 c10 -47 30 -117 44 -157z m-4387 -2835 c-3 -7 -5 -2 -5 12 0 14 2 19 5 13 2 -7 2 -19 0 -25z m3078 -282 c-77 -24 -217 -101 -281 -153 -77 -64 -161 -164 -202 -241 -72 -136 -40 -242 73 -242 44 0 84 34 145 126 114 168 298 277 491 291 241 18 468 -156 530 -407 20 -80 18 -296 -4 -397 -55 -250 -187 -514 -349 -698 -207 -235 -505 -418 -797 -491 -266 -66 -654 7 -1107 209 -359 159 -705 459 -948 822 -88 131 -244 444 -284 570 -57 181 -96 372 -116 572 l-5 53 1447 -1 c1172 -1 1439 -3 1407 -13z m967 8 l45 -6 -2 -172 c-1 -94 -3 -243 -4 -331 l-3 -160 -15 70 c-32 155 -94 266 -213 385 -96 96 -162 138 -288 186 l-87 33 261 1 c144 0 281 -3 306 -6z"/>
 <path d="M2714 7990 c0 -52 1 -74 3 -47 2 26 2 68 0 95 -2 26 -3 4 -3 -48z"/>
 <path d="M3024 7940 c0 -80 2 -112 3 -72 2 39 2 105 0 145 -1 39 -3 7 -3 -73z"/>
 <path d="M3023 7625 c0 -22 2 -30 4 -17 2 12 2 30 0 40 -3 9 -5 -1 -4 -23z"/>
 <path d="M2714 7490 c0 -80 2 -112 3 -72 2 39 2 105 0 145 -1 39 -3 7 -3 -73z"/>
 <path d="M2714 7155 c0 -82 2 -115 3 -72 2 43 2 110 0 150 -1 40 -3 5 -3 -78z"/>
 <path d="M3023 7075 c0 -22 2 -30 4 -17 2 12 2 30 0 40 -3 9 -5 -1 -4 -23z"/>
 <path d="M3014 5045 c0 -71 1 -99 3 -62 2 37 2 96 0 130 -2 34 -3 4 -3 -68z"/>
 <path d="M2724 5045 c0 -66 1 -92 3 -57 2 34 2 88 0 120 -2 31 -3 3 -3 -63z"/>
 <path d="M2714 4250 c0 -113 2 -159 3 -102 2 56 2 148 0 205 -1 56 -3 10 -3 -103z"/>
 <path d="M3023 4390 c0 -36 2 -50 4 -32 2 17 2 47 0 65 -2 17 -4 3 -4 -33z"/>
 <path d="M3023 4140 c0 -41 2 -58 4 -37 2 20 2 54 0 75 -2 20 -4 3 -4 -38z"/>
 <path d="M2714 3715 c0 -115 2 -161 3 -102 2 59 2 154 0 210 -1 56 -3 8 -3 -108z"/>
 <path d="M3023 3800 c0 -25 2 -35 4 -22 2 12 2 32 0 45 -2 12 -4 2 -4 -23z"/>
 <path d="M2723 3285 c0 -27 2 -38 4 -22 2 15 2 37 0 50 -2 12 -4 0 -4 -28z"/>
 <path d="M3012 3275 c0 -16 2 -22 5 -12 2 9 2 23 0 30 -3 6 -5 -1 -5 -18z"/>
 <path d="M2713 2375 c0 -38 2 -53 4 -32 2 20 2 52 0 70 -2 17 -4 1 -4 -38z"/>
 <path d="M3022 2360 c0 -19 2 -27 5 -17 2 9 2 25 0 35 -3 9 -5 1 -5 -18z"/>
 <path d="M2712 2250 c0 -14 2 -19 5 -12 2 6 2 18 0 25 -3 6 -5 1 -5 -13z"/>
 <path d="M2711 2154 c0 -11 3 -14 6 -6 3 7 2 16 -1 19 -3 4 -6 -2 -5 -13z"/>
 <path d="M2710 2110 c0 -7 3 -10 7 -7 3 4 3 10 0 14 -4 3 -7 0 -7 -7z"/>
 <path d="M2714 1850 c0 -113 2 -159 3 -102 2 56 2 148 0 205 -1 56 -3 10 -3 -103z"/>
 <path d="M3022 1935 c0 -16 2 -22 5 -12 2 9 2 23 0 30 -3 6 -5 -1 -5 -18z"/>
 <path d="M3024 1750 c0 -69 1 -97 3 -62 2 34 2 90 0 125 -2 34 -3 6 -3 -63z"/>
 <path d="M3023 1525 c0 -27 2 -38 4 -22 2 15 2 37 0 50 -2 12 -4 0 -4 -28z"/>
 <path d="M2712 1490 c0 -14 2 -19 5 -12 2 6 2 18 0 25 -3 6 -5 1 -5 -13z"/>
 <path d="M758 1453 c29 -2 74 -2 100 0 26 2 2 3 -53 3 -55 0 -76 -1 -47 -3z"/>
 <path d="M1028 1453 c23 -2 59 -2 80 0 20 2 1 4 -43 4 -44 0 -61 -2 -37 -4z"/>
 <path d="M1928 1453 c23 -2 61 -2 85 0 23 2 4 4 -43 4 -47 0 -66 -2 -42 -4z"/>
 <path d="M2138 1453 c28 -2 76 -2 105 0 28 2 5 3 -53 3 -58 0 -81 -1 -52 -3z"/>
 <path d="M2418 1453 c56 -2 148 -2 205 0 56 1 10 3 -103 3 -113 0 -159 -2 -102 -3z"/>
 <path d="M3083 1453 c37 -2 96 -2 130 0 34 2 4 3 -68 3 -71 0 -99 -1 -62 -3z"/>
 <path d="M4393 1453 c4 -3 10 -3 14 0 3 4 0 7 -7 7 -7 0 -10 -3 -7 -7z"/>
 <path d="M631 1436 c-48 -27 -64 -91 -36 -146 15 -30 52 -56 63 -46 3 3 0 6 -6 6 -19 0 -52 62 -52 95 1 38 21 74 51 91 13 7 20 13 14 13 -5 0 -21 -6 -34 -13z"/>
 <path d="M813 1233 c76 -2 198 -2 270 0 73 1 11 3 -138 3 -148 0 -208 -2 -132 -3z"/>
 <path d="M1838 1233 c18 -2 45 -2 60 0 15 2 0 4 -33 4 -33 0 -45 -2 -27 -4z"/>
 <path d="M2168 1233 c83 -2 221 -2 305 0 83 1 15 3 -153 3 -168 0 -236 -2 -152 -3z"/>
 <path d="M2673 1233 c9 -2 23 -2 30 0 6 3 -1 5 -18 5 -16 0 -22 -2 -12 -5z"/>
 <path d="M3478 1223 c12 -2 32 -2 45 0 12 2 2 4 -23 4 -25 0 -35 -2 -22 -4z"/>
 <path d="M3623 1223 c15 -2 37 -2 50 0 12 2 0 4 -28 4 -27 0 -38 -2 -22 -4z"/>
 </g>
<g id="layer103" fill="#ea413b" stroke="none">
 <path d="M5041 8168 c-13 -7 -33 -24 -43 -38 -18 -25 -19 -118 -23 -3415 -4 -3279 -3 -3391 15 -3432 10 -23 27 -46 38 -52 29 -15 78 -14 111 3 59 31 56 -45 56 1348 1 702 3 1280 6 1283 4 3 9 -43 13 -101 16 -238 79 -506 179 -770 110 -287 313 -590 562 -840 138 -138 244 -225 400 -328 317 -208 564 -311 901 -377 427 -82 718 -51 1033 111 525 269 868 732 976 1315 11 61 13 -11 16 -570 1 -352 3 -701 3 -775 1 -151 9 -176 68 -206 37 -19 91 -13 120 13 51 46 48 -51 47 1780 -1 940 -1 2441 0 3337 0 1774 4 1664 -55 1702 -13 9 -42 17 -63 17 -75 0 -121 -59 -121 -155 l0 -53 -18 30 c-46 74 -98 86 -353 80 -490 -12 -926 -106 -1373 -296 -834 -356 -1468 -939 -1909 -1759 -151 -281 -299 -730 -366 -1115 -42 -239 -51 -316 -61 -515 -5 -106 -8 575 -8 1735 0 1051 0 1927 -1 1947 -2 74 -88 129 -150 96z m4244 -2675 c0 -760 -2 -1383 -5 -1386 -3 -3 -867 -6 -1920 -8 l-1915 -4 1 235 c1 280 19 460 69 692 63 293 145 524 295 825 186 375 371 634 665 928 292 293 608 518 980 700 440 215 942 337 1445 351 270 7 311 14 348 60 l27 34 5 -522 c3 -288 5 -1145 5 -1905z m-4088 -1355 c-3 -7 -5 -2 -5 12 0 14 2 19 5 13 2 -7 2 -19 0 -25z m3078 -282 c-77 -24 -217 -101 -281 -153 -77 -64 -161 -164 -202 -241 -72 -136 -40 -242 73 -242 44 0 84 34 145 126 114 168 298 277 491 291 241 18 468 -156 530 -407 20 -80 18 -296 -4 -397 -55 -250 -187 -514 -349 -698 -207 -235 -505 -418 -797 -491 -266 -66 -654 7 -1107 209 -359 159 -705 459 -948 822 -88 131 -244 444 -284 570 -57 181 -96 372 -116 572 l-5 53 1447 -1 c1172 -1 1439 -3 1407 -13z m967 8 l45 -6 -2 -172 c-1 -94 -3 -243 -4 -331 l-3 -160 -15 70 c-32 155 -94 266 -213 385 -96 96 -162 138 -288 186 l-87 33 261 1 c144 0 281 -3 306 -6z"/>
 </g>
<g id="layer104" fill="#f8b506" stroke="none">
 <path d="M5041 8168 c-13 -7 -33 -24 -43 -38 -18 -25 -19 -117 -23 -3401 -2 -1859 0 -3392 5 -3413 18 -81 89 -118 159 -82 59 31 56 -45 56 1351 l1 1280 1984 3 c1092 1 2012 0 2045 -3 l60 -6 0 -1232 c0 -1160 1 -1234 18 -1260 37 -57 122 -72 169 -30 51 46 48 -51 47 1780 -1 940 -1 2441 -1 3337 1 1772 4 1664 -54 1702 -32 22 -94 21 -126 0 -60 -39 -59 -32 -56 -653 4 -1091 3 -3391 -2 -3396 -3 -3 -921 -8 -2041 -12 l-2036 -7 -8 38 c-3 21 -6 909 -5 1973 1 1065 2 1953 1 1973 -2 74 -88 129 -150 96z"/>
 </g>

</svg>